<svg fill="none" height="39" viewBox="0 0 140 39" width="140" xmlns="http://www.w3.org/2000/svg"><path d="m12.2736 38.6044-12.2736-19.6744 11.7353-18.93h25.9844l-12.1005 19.2718 10.1532 19.3326zm15.6674-4.4329-5.1491-10.4762-6.6424 10.4762zm-14.9278-3.6325 16.2385-25.85798h-14.9137l-8.80503 14.20218z" fill="#cd8f5c"/><g fill="#111"><path d="m69.2785 32.4098h-6.7968l-8.3884-12.1332v12.1332h-5.9917v-26.21371h5.9917v11.38421l8.0139-11.38889h6.8156l-8.8378 12.77449z"/><path d="m87.7953 32.9353c-1.7913.0347-3.5711-.2942-5.2317-.9668-1.6607-.6726-3.1677-1.675-4.4299-2.9465-1.2962-1.2544-2.3183-2.764-3.0015-4.4335-.6832-1.6694-1.0128-3.4623-.968-5.2656-.0446-1.8039.2851-3.5975.9683-5.2677.6832-1.6701 1.7051-3.1806 3.0012-4.43607 2.5843-2.52073 6.0515-3.93163 9.6616-3.93163s7.0773 1.4109 9.6617 3.93163c1.2961 1.25547 2.318 2.76597 3.001 4.43607.683 1.6702 1.013 3.4638.968 5.2677.045 1.8033-.284 3.5962-.968 5.2656-.6828 1.6695-1.7048 3.1791-3.001 4.4335-1.2623 1.2715-2.7693 2.2739-4.4299 2.9465-1.6607.6726-3.4404 1.0015-5.2318.9668zm0-5.8419c1.0056.0294 2.0066-.1482 2.9407-.5218.9341-.3737 1.7814-.9354 2.4893-1.6502.7314-.7365 1.3047-1.6146 1.6846-2.5805.3799-.966.5585-1.9993.5249-3.0367.0336-1.0374-.145-2.0708-.5249-3.0367s-.9532-1.8441-1.6846-2.5806c-.7079-.7148-1.5552-1.2765-2.4893-1.6501-.9341-.3737-1.9351-.5513-2.9407-.5219-1.0112-.0295-2.0178.1479-2.958.5214s-1.7941.9352-2.5094 1.6506c-.726.7387-1.2932 1.6181-1.6668 2.5841-.3735.966-.5454 1.9982-.5052 3.0332-.0402 1.0349.1317 2.0671.5052 3.0331.3736.9661.9408 1.8454 1.6668 2.5841.7153.7154 1.5692 1.2772 2.5094 1.6507s1.9468.5509 2.958.5213z"/><path d="m107.234 26.4586 5.15-2.9958c1.048 2.4341 2.883 3.6325 5.504 3.6325 2.341 0 3.558-.7115 3.558-2.1346.007-.3786-.097-.751-.301-1.0707-.203-.3196-.495-.5724-.841-.7268-1.356-.6829-2.789-1.1985-4.269-1.5354-1.923-.4534-3.732-1.2944-5.318-2.4715-1.535-1.2405-2.397-3.1129-2.397-5.5096-.042-1.1007.169-2.1964.617-3.2027.448-1.00631 1.121-1.89641 1.967-2.60178 1.743-1.45026 3.95-2.22168 6.217-2.17199 4.306 0 7.677 2.05965 9.586 5.91677l-5.055 2.9631c-.936-1.9894-2.247-3.038-4.531-3.038-1.798 0-2.809.8988-2.809 1.9848.009.332.094.6575.25.9508.156.2932.378.5462.649.739.624.4869 1.897 1.0096 3.82 1.5682l2.434.7911c.753.2695 1.48.6079 2.172 1.0111.763.3497 1.45.8459 2.022 1.4605 1.18 1.3452 1.82 3.0792 1.797 4.8682.047 1.1287-.172 2.2526-.641 3.2806-.468 1.028-1.172 1.9312-2.055 2.6362-1.797 1.4043-4.157 2.1346-7.021 2.1346-5.393 0-9.007-2.4716-10.505-6.4786z"/><path d="m134.008 10.4985 5.992-4.30709v26.21369h-5.992z"/></g></svg>